<svg width="26" height="26" viewBox="0 0 26 26" fill="none" xmlns="http://www.w3.org/2000/svg">
<path d="M13.0098 2.66211C6.64518 2.66211 3.46289 7.96593 3.46289 12.209C3.46289 16.452 6.64518 20.6951 9.82747 21.7559V23.8774H11.949V21.7559C11.949 21.7559 13.0098 22.1802 14.0705 21.7559V23.8774H16.1921V21.7559C19.3743 20.6951 22.5566 16.452 22.5566 12.209C22.5566 7.96593 19.3743 2.66211 13.0098 2.66211Z" fill="url(#paint0_linear_585_1425)"/>
<path d="M4.52344 10.0888C1.34115 9.02803 0.280382 11.1496 1.34115 13.2711C2.40191 15.3926 4.52344 14.3318 5.5842 12.2103C6.22066 10.7252 5.5842 10.0888 4.52344 10.0888Z" fill="url(#paint1_linear_585_1425)"/>
<path d="M21.4958 10.0888C24.6781 9.02803 25.7389 11.1496 24.6781 13.2711C23.6174 15.3926 21.4958 14.3318 20.4351 12.2103C19.7986 10.7252 20.4351 10.0888 21.4958 10.0888Z" fill="url(#paint2_linear_585_1425)"/>
<path d="M9.00529 3.72374C7.59094 2.30939 6.53017 1.81437 5.823 2.23867" stroke="black" stroke-width="0.424306" stroke-linecap="round"/>
<path d="M15.3699 3.72374C16.7842 2.30939 17.845 1.81437 18.5522 2.23867" stroke="black" stroke-width="0.424306" stroke-linecap="round"/>
<path d="M9.00509 9.23919C9.70811 9.23919 10.278 8.66929 10.278 7.96628C10.278 7.26326 9.70811 6.69336 9.00509 6.69336C8.30208 6.69336 7.73218 7.26326 7.73218 7.96628C7.73218 8.66929 8.30208 9.23919 9.00509 9.23919Z" fill="#050810"/>
<path d="M15.3698 9.23919C16.0729 9.23919 16.6428 8.66929 16.6428 7.96628C16.6428 7.26326 16.0729 6.69336 15.3698 6.69336C14.6668 6.69336 14.0969 7.26326 14.0969 7.96628C14.0969 8.66929 14.6668 9.23919 15.3698 9.23919Z" fill="#050810"/>
<path d="M9.21727 8.17869C9.45161 8.17869 9.64158 7.98872 9.64158 7.75438C9.64158 7.52005 9.45161 7.33008 9.21727 7.33008C8.98294 7.33008 8.79297 7.52005 8.79297 7.75438C8.79297 7.98872 8.98294 8.17869 9.21727 8.17869Z" fill="#00E5CC"/>
<path d="M15.582 8.17869C15.8164 8.17869 16.0063 7.98872 16.0063 7.75438C16.0063 7.52005 15.8164 7.33008 15.582 7.33008C15.3477 7.33008 15.1577 7.52005 15.1577 7.75438C15.1577 7.98872 15.3477 8.17869 15.582 8.17869Z" fill="#00E5CC"/>
<defs>
<linearGradient id="paint0_linear_585_1425" x1="6.14132" y1="3.72287" x2="15.0643" y2="22.9355" gradientUnits="userSpaceOnUse">
<stop stop-color="#EF2E2E"/>
<stop offset="1" stop-color="#B41818"/>
</linearGradient>
<linearGradient id="paint1_linear_585_1425" x1="1.62999" y1="10.0377" x2="3.36696" y2="14.4396" gradientUnits="userSpaceOnUse">
<stop stop-color="#EF2E2E"/>
<stop offset="1" stop-color="#B41818"/>
</linearGradient>
<linearGradient id="paint2_linear_585_1425" x1="20.8678" y1="10.0377" x2="22.6048" y2="14.4396" gradientUnits="userSpaceOnUse">
<stop stop-color="#EF2E2E"/>
<stop offset="1" stop-color="#B41818"/>
</linearGradient>
</defs>
</svg>
