<svg width="205" height="43" viewBox="0 0 205 43" fill="none" xmlns="http://www.w3.org/2000/svg">
<path d="M187.969 34.2226C188.358 33.928 188.966 33.5927 189.438 33.2623C191.415 31.8789 192.175 31.4044 193.972 30.1633C196.635 28.3219 204.408 22.6755 204.703 23.0853C204.703 23.0853 204.703 23.0853 204.703 23.0853C204.703 23.0854 204.703 23.0854 204.703 23.0854C204.703 23.0854 204.703 23.0854 204.703 23.0854C204.705 23.0894 204.708 23.094 204.709 23.0993C204.738 23.1972 204.135 23.7584 204.1 23.9182C204.066 24.0779 204.552 24.5999 203.634 25.3118C202.301 26.34 198.919 28.5514 198.195 29.0822C197.701 29.4456 197.127 29.9416 196.497 30.4103C194.468 31.9217 193.365 32.655 191.626 34.1404C190.83 34.5944 190.033 35.0477 189.235 35.5001C188.297 36.2331 186.758 37.18 186.175 37.608C185.698 37.9593 185.462 38.2272 184.963 38.5915C184.404 39.0005 183.49 39.5522 182.474 40.2995C182.416 40.3424 182.36 40.3842 182.305 40.4251C181.841 40.7565 181.303 40.3383 181.513 39.8083C182.17 38.0434 182.124 37.6125 182.535 36.4883C182.977 35.2802 183.814 33.4607 184.34 31.9046C184.393 31.7042 184.445 31.5037 184.498 31.3032C184.393 31.4207 184.289 31.5381 184.186 31.6557C184.462 30.8764 184.695 30.5861 184.973 29.8795C185.3 29.048 185.366 28.5844 185.585 28.0244C185.764 27.5656 186.087 26.9749 186.314 26.378C186.645 25.5079 186.455 25.6519 186.615 25.1765C186.65 25.0751 187.03 24.0367 187.389 23.0622L189.115 24.5243C188.35 25.0072 187.629 25.4622 187.546 25.5128C186.193 26.3388 185.985 26.2609 184.895 26.9021C181.872 28.6809 178.866 30.667 176.12 32.3954C174.893 33.1669 173.595 33.941 172.345 34.6639C174.05 33.0849 169.551 35.3719 171.543 35.0317C170.114 35.7732 169.242 36.5348 167.921 37.2948C167.459 37.5606 167.06 37.7598 166.601 38.0023C165.538 38.6373 164.452 37.7152 164.915 36.5659C165.1 36.1665 165.301 35.7161 165.538 35.1153C166.453 32.7926 167.175 30.1404 167.949 29.6764C168.343 28.5769 168.759 27.5526 169.112 26.6447L170.475 27.8307C169.205 28.5729 168.211 29.1957 167.808 29.771C167.168 30.1751 165.344 30.8856 164.589 31.2729C163.876 31.6403 158.477 34.5885 157.6 35.0827C156.724 35.5775 155.193 36.4477 154.48 36.9094C153.974 37.2368 153.633 37.6467 153.079 38.014C152.202 38.5109 151.328 38.0085 151.332 37C151.298 36.4904 151.349 35.8842 151.621 35.0605C151.565 32.8566 151.58 32.0714 151.65 30.0217C151.662 29.6506 151.758 29.6087 151.757 29.3919C151.756 28.9453 151.684 28.1855 151.674 27.3883C151.656 26.0774 151.857 25.3292 151.548 25.4753C151.507 24.8169 151.465 24.1584 151.423 23.5L153.261 24.2614C153.125 24.4162 152.989 24.571 152.853 24.7258C152.596 24.8982 152.34 25.0706 152.083 25.2428C151.804 25.6169 151.525 25.9912 151.246 26.3657C151.307 25.6595 149.203 28.1547 150.133 27.5915C148.885 28.7133 147.637 29.8343 146.388 30.9542C146.18 30.4164 143.749 33.5177 144.186 33.4893C144.051 33.625 143.915 33.7607 143.78 33.8964C142.497 34.9867 141.492 36.1619 139.982 37.5448C139.901 37.6187 139.825 37.6881 139.753 37.7534C138.997 38.5048 137.931 38.0658 137.935 37C138.017 35.2817 138.078 35.4223 138.313 34.8335C138.297 34.3521 138.282 33.8708 138.267 33.3894C137.572 30.8636 138.769 31.31 138.23 26.9847C138.464 26.243 138.506 24.9178 138.472 23.5L139.295 23.9377C138.298 24.6464 137.274 25.4404 136.443 26.0793C136.234 26.2398 136.279 26.3142 136.005 26.5329C135.332 27.0667 133.462 28.1991 133.682 28.3912C133.011 28.7481 132.339 29.1046 131.668 29.4608C131.185 29.8503 130.703 30.24 130.221 30.6299C130.273 30.7019 130.325 30.7739 130.378 30.8459C129.179 31.2935 127.626 32.4878 126.788 32.9689C126.621 33.0644 126.517 32.9849 126.004 33.2915C125.404 33.6494 124.35 34.409 123.64 34.8428C123.45 35.1389 123.261 35.4353 123.071 35.7319C121.885 36.6296 121.247 36.6178 120.508 37.0835C120.453 37.1183 120.017 37.4183 119.516 37.7644C118.687 38.3218 117.767 37.5766 118.146 36.652C118.463 35.8503 118.835 34.8994 118.865 34.8137C119.281 33.6182 118.852 33.8303 120.285 30.466C120.54 29.867 120.84 29.4207 121.065 28.8769C121.462 27.9163 122.401 24.9162 122.274 24.5986C122.529 24.2363 122.831 23.6263 123.137 22.9448L125.367 24.6887C124.179 25.4936 122.843 26.5169 122.283 26.858C122.025 27.0141 121.858 26.9004 121.091 27.4128C120.469 27.828 119.008 29.0907 118.229 29.6309C117.401 30.2035 117.016 30.285 116.646 30.5423C116.296 30.7855 116.057 31.1237 115.589 31.4665C114.126 32.5348 112.677 33.333 111.52 34.1762C109.846 35.395 108.604 36.7966 107.313 37.966C107.175 38.0552 107.032 38.1367 106.889 38.2182C105.652 39.1156 104.235 38.2274 104.517 36.7254C104.595 36.4697 104.676 36.212 104.726 35.9377C105.47 31.8994 106.316 27.4862 107.147 23.2494L109.151 24.7128C107.78 25.43 106.429 26.1347 105.119 26.8154C102.816 28.0155 96.8617 30.5779 98.8298 30.6002C98.1156 31.1778 92.1607 33.9593 91.0591 34.5463C90.1612 35.0261 89.4716 35.53 88.7803 35.9542C87.5433 36.6115 86.3439 35.9008 86.3497 34.5C86.3391 34.3172 86.3321 34.1363 86.3311 33.9557C86.3162 31.4908 86.3974 29.6331 86.329 27L88.562 28.5736C88.0686 28.7645 87.5478 28.9716 86.9897 29.2007C86.128 29.5548 85.2616 30.0934 84.7425 30.2786C84.1172 30.5011 83.3761 30.5501 82.5629 30.8297C80.6249 31.4978 77.055 32.8596 75.1932 33.4936C74.8532 33.6089 74.6726 33.4784 74.1702 33.5983C72.2132 34.0644 70.1105 34.8414 70.6831 35.2656C69.5994 35.5036 68.5887 35.8405 67.612 36.2136C65.9402 36.8046 64.6392 35.4501 65.3159 33.811C65.8139 32.5139 66.2242 31.2189 66.7226 29.9583C67.4929 28.0116 68.561 25.4122 69.6469 22.7419L72.2801 25.344C68.5688 26.9235 64.7348 28.5768 62.4482 29.721C59.976 30.9579 60.151 31.1903 56.3224 32.5656C55.4725 32.8708 54.6188 33.1568 53.5881 33.5272C51.1724 34.3961 48.8026 34.8302 47.2552 36.1873C46.947 36.2984 46.6473 36.4099 46.3549 36.5208C44.09 37.4752 42.2427 35.0106 43.8018 33.1106C45.3968 31.3057 46.6224 29.7358 48.1816 28.5959C48.2358 28.3185 48.2899 28.041 48.3438 27.7633C48.5613 27.4903 48.7788 27.2173 48.9963 26.9442C49.1634 26.9403 49.3306 26.9364 49.4978 26.9325C50.6578 25.5458 51.8128 23.7011 52.8676 22.1644L55.2833 25.4583C54.6449 25.7782 54.0411 26.0655 53.4972 26.2843C50.2053 27.61 41.6541 30.8425 38.4669 31.935C36.7749 32.5151 36.7918 32.8163 35.6254 32.6542C35.2699 32.8414 34.9145 33.0287 34.5591 33.2161C34.3749 33.4291 34.1909 33.6422 34.0069 33.8555C32.0269 34.6606 29.6361 35.4375 27.681 36.2024C25.7838 36.9579 24.2854 34.9175 25.5809 33.3389C25.678 33.2221 25.773 33.1065 25.8659 32.9921C28.3355 29.9507 31.7532 25.1846 34.4405 22.224L36.655 25.4056C36.5953 25.4227 36.5359 25.4396 36.4769 25.4562C35.5109 25.7275 34.2381 25.8771 33.3121 26.2013C31.9644 26.673 31.7861 27.2219 30.0775 27.8252C27.1329 28.8653 21.4626 30.2605 18.6869 31.2656C17.8625 31.5642 17.5331 31.864 16.9673 32.0803C14.5955 32.989 12.6219 33.6584 10.4119 34.7167C7.79467 35.1425 7.81513 34.5075 6.85521 34.2065C6.12847 33.9805 4.00722 33.5995 3.62507 33.3097C3.35673 33.1064 3.9034 32.5411 3.55469 32.3357C6.43965 31.0963 7.7732 30.9291 10.3187 30.5128C14.7576 28.9821 19.1966 27.4517 23.6357 25.9217C24.0928 25.9373 24.5497 25.9525 25.0066 25.9675C25.0067 25.9678 25.0068 25.9682 25.0069 25.9685C26.7739 25.5619 27.362 24.9216 28.2519 24.5191C30.214 23.6308 32.6571 22.6709 35.3742 21.6795C37.3696 20.9896 38.824 23.0826 37.4899 24.719C34.7903 28.1479 31.5985 31.9665 28.445 35.6823L26.3066 32.7665C31.8426 30.6674 37.2553 28.6732 41.292 27.1138C43.3521 26.317 49.9557 23.4806 51.4539 23.1455C51.8419 23.059 52.0282 23.2311 52.4198 23.086C52.9624 22.847 53.505 22.608 54.0477 22.3691C55.3064 21.8634 56.3001 23.2201 55.4427 24.2713C53.5393 26.7671 51.6344 29.2618 49.7282 31.7554C48.6616 32.9381 47.6096 34.1471 46.5683 35.3741L44.9622 33.2288C50.6673 30.9345 56.3578 28.3413 61.9895 25.9332C64.9689 24.6587 67.9436 23.3858 70.9142 22.1153C72.2998 21.5243 73.4579 22.6734 72.8916 24.0693C71.4033 27.7483 69.9169 31.4203 68.4307 35.0853L66.4801 33.0442C73.4935 30.5151 80.4877 28.0025 87.4692 25.5138C88.6027 25.1034 89.5728 25.7945 89.5781 27C89.5766 29.5022 89.573 32.0022 89.5671 34.5L87.2591 33.1192C90.4338 31.4254 93.6069 29.7381 96.7792 28.0578C100.164 26.2644 104.361 23.8829 107.774 22.1469C109.053 21.4552 110.27 22.3493 110.01 23.7796C109.981 23.9202 109.951 24.0594 109.922 24.1971C109.584 25.7861 109.169 26.3973 108.991 28.5339C108.908 28.5414 108.826 28.549 108.744 28.5565C108.495 30.4038 108.451 31.6056 108.082 33.6601C107.94 34.4531 107.684 35.8431 107.419 37.2627L105.15 35.8345C106.53 34.8311 107.949 33.8073 108.64 33.3264C109.301 32.8654 109.143 33.1579 109.75 32.7163C110.79 31.959 112.897 30.1865 114.334 29.1455C115.636 28.2024 117.925 26.7429 118.912 25.9982C120.456 24.8333 122.044 23.6011 123.665 22.3564C124.918 21.4388 126.394 22.595 125.811 24.0341C124.869 26.52 123.89 29.0528 122.837 31.5192C122.322 32.7241 121.519 34.2166 121.368 34.598C121.073 35.3431 121.138 35.6277 120.954 36.1338C120.791 36.5781 120.603 37.0612 120.397 37.5692L118.156 35.7497C120.327 34.2791 123.144 32.556 124.989 31.3267C129.335 28.432 133.816 25.4053 138.265 22.4104C139.247 21.7418 140.31 22.3116 140.315 23.5C140.31 27.1071 140.302 30.6941 140.279 34.1912C140.273 35.0486 140.269 35.9947 140.264 37L138.106 36.1062C141.968 32.2796 147.053 27.2238 150.155 24.2718C150.948 23.5175 150.854 23.8362 151.505 23.1884C151.629 23.0657 151.74 22.9503 151.842 22.8417C152.498 22.1813 153.428 22.5687 153.431 23.5C153.455 24.2216 153.528 24.6682 153.534 25.0627C153.578 27.8403 153.644 33.4456 153.593 37L151.958 36.0509C152.536 35.7309 153.056 35.4496 153.488 35.2232C154.013 34.9484 154.446 34.8399 154.755 34.6643C154.911 34.5756 155.223 34.3048 155.709 34.0194C160.001 31.4995 163.18 29.7502 167.434 27.366C168.126 26.9783 168.826 26.5841 169.534 26.1844C170.39 25.6925 171.237 26.4312 170.872 27.3489C169.57 30.558 168.225 33.929 166.862 37.3449L165.522 36.2038C170.343 33.3051 175.261 30.3487 179.944 27.6034C181.789 26.5227 183.152 25.9458 183.409 25.7898C183.973 25.4481 184.266 25.115 185.396 24.4023C186.225 23.8803 187.124 23.3307 188.06 22.7672C188.834 22.3004 189.624 22.9714 189.295 23.8132C187.881 27.4129 186.203 31.4399 185.034 34.5196C184.385 36.2291 183.606 38.5318 182.934 40.3678L181.415 39.1847C181.636 39.018 181.85 38.858 182.055 38.7068C183.375 37.7328 186.568 35.536 187.12 35.0588C187.457 34.7688 187.546 34.5428 187.969 34.2226ZM166.204 33.7674C166.333 34.1337 167.268 31.1999 166.716 32.22C166.592 32.4498 166.17 33.6727 166.204 33.7674ZM106.697 28.7115C106.588 28.72 106.48 28.7285 106.371 28.737C106.342 29.1416 106.312 29.5462 106.283 29.9508C106.385 29.7394 106.488 29.528 106.591 29.3166C106.627 29.1149 106.662 28.9132 106.697 28.7115Z" fill="#0059FF"/>
</svg>
